<?xml version="1.0" standalone="no"?>
<!DOCTYPE svg PUBLIC "-//W3C//DTD SVG 20010904//EN"
 "http://www.w3.org/TR/2001/REC-SVG-20010904/DTD/svg10.dtd">
<svg version="1.0" xmlns="http://www.w3.org/2000/svg"
 width="500.000000pt" height="500.000000pt" viewBox="0 0 500.000000 500.000000"
 preserveAspectRatio="xMidYMid meet">
<metadata>
Created by potrace 1.11, written by Peter Selinger 2001-2013
</metadata>
<g transform="translate(0.000000,500.000000) scale(0.100000,-0.100000)"
fill="#000000" stroke="none">
<path d="M0 2500 l0 -2500 2500 0 2500 0 0 2500 0 2500 -2500 0 -2500 0 0
-2500z m1258 1513 c-60 -126 -79 -238 -46 -280 7 -8 1 -39 -16 -90 -47 -144
-56 -267 -25 -325 10 -18 6 -19 -63 -16 l-73 3 -12 55 c-16 80 -15 292 2 374
29 135 97 242 205 322 25 19 50 34 55 34 6 0 -6 -35 -27 -77z m-213 -33 c-9
-18 -34 -52 -56 -75 -33 -35 -41 -54 -49 -102 -27 -182 -20 -345 21 -424 11
-23 19 -42 17 -44 -2 -2 -30 0 -62 3 l-60 7 -27 55 c-38 77 -52 154 -47 252 6
99 29 155 97 230 40 45 170 141 179 133 2 -2 -4 -18 -13 -35z m2836 -1 c34 -8
64 -22 88 -44 35 -32 36 -36 37 -107 1 -55 6 -83 22 -113 34 -61 26 -119 -27
-199 -14 -21 -35 -54 -47 -72 -46 -76 -98 -116 -173 -133 l-41 -9 0 70 c0 66
2 73 35 109 55 61 87 135 93 210 6 87 -16 152 -79 235 l-48 64 44 0 c24 0 67
-5 96 -11z m-2413 -180 c-36 -59 -77 -156 -78 -182 0 -9 11 -22 24 -28 l23
-11 -33 -104 c-19 -57 -34 -124 -34 -149 l0 -45 -52 0 c-81 0 -83 3 -82 122 1
158 44 279 129 363 38 38 106 83 127 85 4 0 -6 -23 -24 -51z m2738 -31 c23
-44 13 -110 -23 -162 l-29 -41 23 -50 c29 -64 32 -166 5 -210 -10 -16 -53 -64
-95 -107 -55 -55 -95 -86 -149 -112 -68 -34 -193 -69 -210 -59 -11 6 -10 183
1 183 5 0 50 27 99 60 178 119 293 278 329 457 10 45 21 79 25 77 5 -3 15 -19
24 -36z m-2627 -234 c-53 -106 -67 -168 -51 -229 6 -22 9 -41 7 -43 -2 -2 -29
0 -60 3 l-57 8 6 53 c11 99 43 163 117 237 37 37 71 67 77 67 5 0 -12 -43 -39
-96z m113 -66 c-11 -22 -18 -67 -20 -136 l-4 -104 -37 7 c-68 12 -73 15 -67
41 18 69 51 137 87 178 48 54 64 59 41 14z m1938 -364 c-49 -378 -72 -611 -74
-755 l-1 -137 -32 -22 c-18 -12 -75 -68 -127 -124 -51 -55 -111 -111 -133
-123 l-40 -23 -39 66 c-35 60 -220 254 -243 254 -4 0 -7 -10 -5 -22 29 -188
49 -293 65 -337 10 -30 16 -57 11 -60 -116 -88 -335 -211 -374 -211 -9 0 -39
22 -65 48 -143 145 -303 260 -424 306 -31 11 -57 25 -59 29 -2 9 328 317 340
317 4 0 13 -19 20 -42 19 -67 91 -206 127 -247 31 -37 88 -70 99 -58 20 20
-58 292 -116 407 l-31 62 45 71 c63 101 204 274 278 342 74 67 187 150 194
142 3 -3 10 -70 15 -149 14 -214 44 -368 70 -368 41 0 74 328 50 498 l-7 52
28 0 c59 0 199 91 358 232 52 47 96 84 98 83 1 -1 -11 -105 -28 -231z m-2373
131 c213 -25 388 -45 389 -45 4 0 264 -329 264 -334 0 -3 -31 6 -70 19 -38 13
-103 29 -144 36 -89 15 -134 5 -156 -33 -13 -25 -13 -29 8 -51 35 -38 86 -49
249 -54 l151 -5 70 -147 c38 -80 69 -147 68 -149 -2 -1 -40 3 -86 9 -113 15
-206 7 -233 -20 l-21 -21 20 -27 c33 -44 109 -65 241 -65 l113 0 10 -37 c21
-82 40 -167 40 -188 l0 -23 -192 1 c-106 1 -240 4 -297 8 l-104 6 -43 105
c-146 354 -376 715 -606 954 -83 85 -99 106 -81 106 13 0 197 -20 410 -45z
m2943 -56 c-17 -43 -29 -93 -30 -121 0 -34 -6 -54 -24 -75 -54 -64 -202 -117
-363 -130 l-83 -6 0 61 0 61 56 11 c79 17 180 52 259 91 71 36 171 119 194
163 25 47 21 22 -9 -55z m14 -236 c-19 -80 -83 -158 -185 -225 -45 -30 -70
-39 -137 -48 -83 -11 -180 -2 -206 19 -6 5 -10 30 -8 59 l4 49 93 7 c165 11
312 61 393 132 45 41 54 42 46 7z m-463 -323 c56 -18 86 -21 189 -18 l122 3
-34 -25 c-18 -13 -60 -51 -93 -83 l-60 -59 -68 6 c-71 6 -136 28 -149 49 -9
14 -10 103 -2 135 4 13 12 21 18 18 6 -3 41 -14 77 -26z m-34 -219 c21 -6 62
-11 91 -11 59 0 64 -9 26 -47 -24 -24 -30 -25 -110 -21 -46 2 -86 7 -90 10 -3
4 -3 31 1 61 7 53 8 54 25 37 10 -10 36 -23 57 -29z m-1828 -401 c195 -58 391
-177 571 -348 87 -83 86 -87 -17 -121 -71 -24 -195 -29 -210 -8 -5 6 -17 39
-27 72 -38 128 -89 209 -149 235 -37 17 -45 17 -77 4 -44 -18 -94 -72 -144
-158 l-39 -66 -56 0 c-50 0 -61 4 -84 28 -15 16 -49 40 -75 53 -41 21 -60 24
-142 23 -64 -1 -114 -8 -155 -21 l-60 -19 3 -73 c2 -66 1 -71 -15 -62 -59 32
-116 127 -127 211 l-6 45 67 53 c87 67 226 136 328 162 109 27 305 22 414 -10z
m185 -231 c35 -27 72 -102 91 -181 21 -91 21 -93 -19 -69 -61 38 -120 54 -224
60 l-102 6 46 70 c71 107 101 135 145 135 22 0 47 -8 63 -21z m841 -110 c85
-58 324 -147 548 -204 59 -16 107 -31 107 -35 0 -10 -206 -143 -324 -208 -147
-82 -327 -162 -486 -217 -73 -25 -138 -45 -144 -45 -7 0 -27 34 -45 75 -67
152 -191 313 -301 388 l-44 31 94 14 c89 12 174 31 211 46 12 5 30 -10 68 -58
102 -128 206 -206 274 -206 88 0 61 63 -94 224 l-98 103 72 32 c40 17 84 42
98 56 30 29 28 29 64 4z m-1159 -105 c20 -5 20 -8 -18 -82 -75 -148 -72 -239
7 -276 l37 -18 -67 -45 -66 -44 -45 41 c-25 23 -68 52 -96 64 l-50 22 38 45
c48 57 113 158 153 237 33 65 47 72 107 56z m243 -38 c42 -10 46 -14 52 -47 6
-43 36 -84 84 -116 19 -13 35 -26 35 -29 0 -3 -9 -22 -20 -44 -26 -50 -55 -70
-104 -70 l-40 0 29 30 c28 29 29 32 15 58 -17 30 -129 92 -167 92 -29 0 -73
-41 -73 -68 0 -11 7 -39 15 -62 8 -24 13 -45 11 -47 -8 -8 -65 27 -85 53 -33
42 -22 116 23 153 9 8 16 24 16 38 0 14 13 38 30 55 28 28 34 29 82 23 28 -4
72 -12 97 -19z m-602 -352 c60 -24 108 -50 206 -111 42 -26 48 -54 22 -103
-16 -31 -61 -60 -92 -60 -14 1 -12 5 10 21 37 28 34 53 -10 86 -21 15 -53 40
-72 56 -19 16 -50 36 -68 44 -30 12 -38 12 -68 -2 -18 -9 -36 -23 -39 -31 -3
-9 -20 -14 -43 -14 -21 0 -49 -7 -62 -16 -21 -15 -23 -22 -18 -75 l5 -59 -29
16 c-82 42 -56 194 45 255 46 28 132 25 213 -7z"/>
<path d="M1294 1891 c-38 -17 -84 -62 -84 -82 0 -17 106 33 140 67 34 33 34
34 10 34 -14 0 -43 -9 -66 -19z"/>
</g>
</svg>
